<svg width="761" height="229" viewBox="0 0 761 229" fill="none" xmlns="http://www.w3.org/2000/svg">
<path d="M32.7 197.8V28.8H102.2C112.8 28.8 122.2 30.9 130.3 35.2C138.4 39.5 144.8 45.5 149.4 53.2C154 60.9 156.3 70.1 156.3 80.7V84.1C156.3 94.6 153.9 103.7 149.2 111.5C144.4 119.3 138 125.3 129.9 129.6C121.8 133.9 112.6 136 102.3 136H64.6V197.8H32.7ZM64.5 107H99C106.6 107 112.7 104.9 117.4 100.7C122.1 96.5 124.4 90.8 124.4 83.6V81.2C124.4 74 122.1 68.2 117.4 64.1C112.7 59.9 106.6 57.8 99 57.8H64.5V107Z" fill="#2E2C81"/>
<path d="M392 197.8V169.8H414.2V56.8H392V28.8H461.5C484.2 28.8 501.5 34.6 513.3 46.1C525.1 57.6 531 74.7 531 97.4V129.3C531 152 525.1 169.1 513.3 180.6C501.5 192.1 484.2 197.9 461.5 197.9H392V197.8ZM446.1 168.9H462C474.9 168.9 484.3 165.5 490.2 158.8C496.2 152 499.1 142.5 499.1 130.3V96.5C499.1 84.1 496.1 74.6 490.2 67.9C484.2 61.2 474.8 57.9 462 57.9H446.1V168.9Z" fill="#2E2C81"/>
<path d="M580.8 197.8L625.2 28.8H680.7L725.1 197.8H692.3L683.1 160.6H622.7L613.5 197.8H580.8ZM630.3 131.2H675.7L657.5 57.8H648.5L630.3 131.2Z" fill="#2E2C81"/>
<path d="M321.8 43.8C309.8 32.5 293.7 26.8 273.6 26.8C253.6 26.8 237.6 32.5 225.6 43.8C213.5 55.1 207.5 71.7 207.5 93.4V135.9C207.5 158.3 213.5 175 225.6 186C237.7 197 253.7 202.5 273.6 202.5C293.7 202.5 309.8 197 321.8 186C333.8 175 339.8 158.3 339.8 135.9V93.4C339.8 71.7 333.8 55.1 321.8 43.8ZM247.7 64.2C253.9 57.6 262.5 54.3 273.6 54.3C284.4 54.3 293 57.5 299.3 63.8C299.8 64.3 300.2 64.8 300.6 65.3L238.3 127.6V91.9C238.4 80 241.4 70.8 247.7 64.2ZM300.3 165.1C294.6 171.7 285.7 175 273.6 175C261.8 175 253 171.8 247.2 165.5C246.7 165 246.3 164.4 245.9 163.9L308.9 100.9V137C308.9 149.1 306 158.5 300.3 165.1Z" fill="#F1896A"/>
</svg>
